<svg xmlns="http://www.w3.org/2000/svg" version="1.1" xmlns:xlink="http://www.w3.org/1999/xlink" width="1500" height="192" viewBox="0 0 1500 192"><svg xml:space="preserve" width="1500" height="192" data-version="2" data-id="lg_5pZvObZheiNz2xKiP1" viewBox="0 0 560 192" x="0" y="0"><rect width="100%" height="100%" fill="transparent"></rect><path d="m193.68 54.97-.45 8.1h29.25l-.9 7.2h-38.25l.9-9V12.22l-1.35-9.45 10.8-.9z"></path><rect width="39.6" height="68.4" x="-19.8" y="-34.2" fill="none" rx="0" ry="0" transform="translate(203.18 36.57)"></rect><path d="m263.75 60.14 4.9 4.32q-1.39 1.44-3.06 2.66-1.66 1.21-3.69 2.09-2.02.88-4.47 1.35-2.46.47-5.47.47-5.99 0-10.22-2.11-4.23-2.12-6.9-5.67-2.68-3.56-3.92-8.15-1.24-4.59-1.24-9.58 0-3.2.59-6.32.58-3.13 1.75-5.97 1.17-2.83 2.93-5.26 1.75-2.43 4.09-4.19 2.34-1.75 5.29-2.76 2.95-1.02 6.5-1.02 4.86 0 8.42 1.58 3.55 1.57 5.89 4.41 2.34 2.83 3.47 6.79 1.12 3.96 1.12 8.78 0 1.39-.09 3.06-.09 1.66-.27 3.15h-31.14q0 3.37.93 6.3.92 2.92 2.58 5.11 1.67 2.18 4.03 3.42 2.36 1.23 5.29 1.23 2.88 0 5.02-.42 2.13-.43 3.66-1.04 1.53-.61 2.5-1.24t1.51-.99m-18.99-19.12h16.42q.05-.5.07-.99.02-.5.02-.99 0-2.57-.58-4.73-.59-2.16-1.78-3.75-1.19-1.6-3.04-2.5-1.84-.9-4.36-.9-3.02 0-5.15.97-2.14.96-3.6 2.47-1.47 1.51-2.34 3.31-.88 1.8-1.33 3.42l-2.34 4.9z"></path><rect width="40.05" height="51.03" x="-20.02" y="-25.52" fill="none" rx="0" ry="0" transform="translate(250.2 46.02)"></rect><path d="m311.81 20.77 7.74 27.9 1.89 12.6 1.8-12.6 7.69-27.9 7.29-.77-13.9 50.27h-6.84l-7.7-27.9-1.71-12.6-1.84 12.6-7.7 27.9h-6.84l-13.63-49.5 7.74-.9 7.92 28.8 1.93 12.6 1.8-12.6 7.7-27.9z"></path><rect width="60.16" height="50.4" x="-30.08" y="-25.2" fill="none" rx="0" ry="0" transform="translate(308.64 45.57)"></rect><path d="M359.73 21.89v48.38h-8.55V22.79zm-8.82-10.12v-9H360v9z"></path><rect width="9.09" height="67.5" x="-4.54" y="-33.75" fill="none" rx="0" ry="0" transform="translate(355.95 37.02)"></rect><path d="m401.54 23.15-2.61 5.76q-.81-.4-1.94-.81-1.12-.4-2.34-.72-1.21-.31-2.45-.49-1.24-.18-2.36-.18-4.77 0-6.75 1.42-1.98 1.41-1.98 4.25 0 1.89 1.3 3.13 1.31 1.23 3.38 2.22 2.07.99 4.61 1.87 2.54.88 4.97 2.09 1.76.86 3.56 2.03t3.24 2.74q1.44 1.58 2.34 3.56.9 1.98.9 4.45 0 4.55-1.53 7.7-1.53 3.15-4.16 5.11-2.64 1.95-6.17 2.85-3.53.9-7.54.9-1.53 0-3.46-.29-1.94-.29-3.87-.81-1.94-.52-3.69-1.24-1.76-.72-2.93-1.53l2.97-5.94q1.08.54 2.57 1.02 1.48.47 3.06.83 1.57.36 3.13.56 1.55.2 2.76.2 2.07 0 3.99-.42 1.91-.43 3.37-1.38 1.46-.94 2.34-2.45.88-1.51.88-3.71 0-1.67-.7-2.93-.7-1.26-1.89-2.22-1.19-.97-2.77-1.78-1.57-.81-3.33-1.55-1.75-.75-3.6-1.53-1.84-.79-3.51-1.74-1.57-.9-3.03-1.98-1.47-1.08-2.59-2.43-1.13-1.35-1.8-3.03-.68-1.69-.68-3.85 0-3.42 1.22-5.87 1.21-2.46 3.42-3.99 2.2-1.53 5.31-2.25 3.1-.72 6.84-.72 1.71 0 3.37.27 1.67.27 3.2.7 1.53.43 2.79 1.01 1.26.59 2.16 1.17"></path><rect width="33.35" height="51.03" x="-16.68" y="-25.52" fill="none" rx="0" ry="0" transform="translate(389.24 46.02)"></rect><path d="M248.13 165.87h-9.45v-45l1.98-14.4-.22-.05-4.55 13.55-18.67 40.05h-3.11l-16.6-35.55-5.94-18.05-.27.05 2.38 18.85v40.55h-9v-58.05l-1.26-9.45 10.53-.9 19.76 42.3 2.47 11.7 2.48-11.7 19.3-41.4 10.17-.9z"></path><rect width="64.71" height="68.4" x="-32.35" y="-34.2" fill="none" rx="0" ry="0" transform="translate(216.28 132.17)"></rect><path d="M293.13 154.26v-37.89l8.55-.9v50.4h-8.55v-7.34l-2.74 4.82q-.81.54-1.91 1.12-1.11.59-2.5 1.06-1.4.47-3.06.79-1.67.31-3.51.31-3.6 0-6.19-1.3-2.59-1.31-4.25-3.65-1.67-2.34-2.48-5.56-.81-3.21-.81-6.99v-32.76l8.55-.9v33.66q0 4.86 1.96 7.58 1.96 2.72 6.14 2.72 1.53 0 3.02-.49 1.48-.5 2.88-1.26 1.39-.77 2.63-1.67 1.24-.9 2.27-1.75"></path><rect width="36" height="51.16" x="-18" y="-25.58" fill="none" rx="0" ry="0" transform="translate(284.18 141.55)"></rect><path d="M340.88 123.21q-1.8 0-3.56.72-1.75.72-3.37 1.93-1.62 1.22-3.06 2.84-1.44 1.62-2.66 3.42v33.75h-8.55v-49.5l8.55-.9v10.12l4.5-7.87q.59-.36 1.47-.75.87-.38 2-.67 1.12-.29 2.41-.5 1.28-.2 2.63-.2 2.02 0 3.4.36 1.37.36 2.04.68l-.45 7.47q-.67-.23-2.02-.57-1.35-.33-3.33-.33"></path><rect width="27" height="50.4" x="-13.5" y="-25.2" fill="none" rx="0" ry="0" transform="translate(333.68 141.17)"></rect><path d="M364.23 117.49v48.38h-8.55v-47.48zm-8.82-10.12v-9h9.09v9z"></path><rect width="9.09" height="67.5" x="-4.54" y="-33.75" fill="none" rx="0" ry="0" transform="translate(360.45 132.62)"></rect><path d="M410.13 154.26v-37.89l8.55-.9v50.4h-8.55v-7.34l-2.74 4.82q-.81.54-1.91 1.12-1.11.59-2.5 1.06-1.4.47-3.06.79-1.67.31-3.51.31-3.6 0-6.19-1.3-2.59-1.31-4.25-3.65-1.67-2.34-2.48-5.56-.81-3.21-.81-6.99v-32.76l8.55-.9v33.66q0 4.86 1.96 7.58 1.96 2.72 6.14 2.72 1.53 0 3.02-.49 1.48-.5 2.88-1.26 1.39-.77 2.63-1.67 1.24-.9 2.27-1.75"></path><rect width="36" height="51.16" x="-18" y="-25.58" fill="none" rx="0" ry="0" transform="translate(401.18 141.55)"></rect><path d="M445.23 127.89v37.98h-8.55v-49.5l8.55-.9v8.23l2.75-4.81q.81-.54 2.07-1.13 1.26-.58 2.81-1.06 1.55-.47 3.35-.78 1.8-.32 3.65-.32 3.55 0 6.01 1.15 2.45 1.15 3.98 3.31 1.53 2.16 2.18 5.22.65 3.06.65 6.84v33.75h-8.55v-33.75q0-2.43-.33-4.19-.34-1.75-1.17-2.9-.84-1.15-2.23-1.69-1.4-.54-3.47-.54-1.53 0-3.1.47-1.58.48-3.08 1.22-1.51.74-2.93 1.64-1.42.9-2.59 1.76"></path><rect width="36" height="50.4" x="-18" y="-25.2" fill="none" rx="0" ry="0" transform="translate(455.18 141.17)"></rect><path d="M518.13 167.26v-7.47l-3.91 4.95q-.41.27-1.15.59-.74.31-1.82.6-1.08.3-2.52.5t-3.2.2q-4.09 0-7.62-2-3.54-2-6.15-5.45-2.61-3.44-4.09-8.05-1.49-4.61-1.49-9.79 0-5.26 1.35-9.94t4.05-8.19q2.7-3.51 6.71-5.56 4-2.05 9.31-2.05 1.67 0 3.27.14 1.59.13 2.99.63l4.27 6.39v-7.29l8.55.9v51.57q0 4.41-1.5 8.28-1.51 3.87-4.35 6.72-2.83 2.86-6.9 4.53-4.08 1.66-9.21 1.66-3.55 0-6.23-.9-2.68-.9-4.57-1.98-2.16-1.26-3.73-2.92l4.41-4.95q1.3.99 2.92 1.8 1.4.67 3.24 1.21 1.85.54 4.01.54 2.79 0 5.22-1.15 2.43-1.14 4.25-3.12 1.82-1.98 2.86-4.66 1.03-2.68 1.03-5.74m0-13.77v-25.15q-1.21-1.53-2.83-2.75-1.4-1.03-3.38-1.91-1.98-.88-4.54-.88-2.7 0-4.68.86-1.98.85-3.4 2.29t-2.29 3.35q-.88 1.92-1.4 4.05-.52 2.14-.7 4.32-.18 2.19-.18 4.21 0 3.83.84 7.04.83 3.22 2.34 5.54 1.5 2.32 3.64 3.62 2.14 1.31 4.7 1.31 2.3 0 4.1-.5 1.8-.49 3.24-1.33 1.44-.83 2.54-1.89 1.1-1.05 2-2.18"></path><rect width="40.5" height="73.66" x="-20.25" y="-36.83" fill="none" rx="0" ry="0" transform="translate(506.93 152.8)"></rect><path d="M553.23 117.49v48.38h-8.55v-47.48zm-8.82-10.12v-9h9.09v9z"></path><rect width="9.09" height="67.5" x="-4.54" y="-33.75" fill="none" rx="0" ry="0" transform="translate(549.46 132.62)"></rect><circle r="84.15" fill="#fff" stroke="#000" stroke-width="6" transform="translate(76.33 89.69)scale(.8127)"></circle><path d="m92.376 65.978-.266-.533H63L48.413 91.09l14.521 25.645h29.109l14.588-25.645zm-25.978 8.66-15.587 14.92 12.39-21.848zm24.912-6.995 4.263 23.78L68.796 74.97zM67.864 75.97l27.31 16.785-27.31 15.52zm27.643 18.117-4.796 20.516-21.715-5.395zM66.53 107.743l-15.72-16.32 15.72-15.12zm-.2 1.731-3.064 5.13-11.39-20.117zm1.2.666 20.915 5.263H64.333zm29.508-16.852 7.726-1.665-12.522 22.114zm7.593-2.93-7.593 1.665-3.93-22.048zm-37.1-16.388L64.2 66.777h25.445z"></path></svg></svg>